<svg xmlns="http://www.w3.org/2000/svg" width="128" height="128" viewBox="0 0 128 128">
  <rect width="128" height="128" rx="24" fill="#1a1a1a"/>
  <g transform="translate(64,64)">
    <!-- Radial burst of lines fading from white to dark -->
    <g stroke-linecap="round">
      <line x1="0" y1="-18" x2="0" y2="-50" stroke="#fff" stroke-width="3.2" transform="rotate(0)"/>
      <line x1="0" y1="-18" x2="0" y2="-50" stroke="#f5f5f5" stroke-width="3.2" transform="rotate(7.5)"/>
      <line x1="0" y1="-18" x2="0" y2="-50" stroke="#eee" stroke-width="3.2" transform="rotate(15)"/>
      <line x1="0" y1="-18" x2="0" y2="-50" stroke="#e0e0e0" stroke-width="3.2" transform="rotate(22.5)"/>
      <line x1="0" y1="-18" x2="0" y2="-50" stroke="#d0d0d0" stroke-width="3.2" transform="rotate(30)"/>
      <line x1="0" y1="-18" x2="0" y2="-50" stroke="#c0c0c0" stroke-width="3.2" transform="rotate(37.5)"/>
      <line x1="0" y1="-18" x2="0" y2="-50" stroke="#b0b0b0" stroke-width="3.2" transform="rotate(45)"/>
      <line x1="0" y1="-18" x2="0" y2="-50" stroke="#a0a0a0" stroke-width="3.2" transform="rotate(52.5)"/>
      <line x1="0" y1="-18" x2="0" y2="-50" stroke="#909090" stroke-width="3.2" transform="rotate(60)"/>
      <line x1="0" y1="-18" x2="0" y2="-50" stroke="#808080" stroke-width="3.2" transform="rotate(67.5)"/>
      <line x1="0" y1="-18" x2="0" y2="-50" stroke="#707070" stroke-width="3.2" transform="rotate(75)"/>
      <line x1="0" y1="-18" x2="0" y2="-50" stroke="#606060" stroke-width="3.2" transform="rotate(82.5)"/>
      <line x1="0" y1="-18" x2="0" y2="-50" stroke="#555" stroke-width="3.2" transform="rotate(90)"/>
      <line x1="0" y1="-18" x2="0" y2="-50" stroke="#4a4a4a" stroke-width="3.2" transform="rotate(97.5)"/>
      <line x1="0" y1="-18" x2="0" y2="-50" stroke="#444" stroke-width="3.2" transform="rotate(105)"/>
      <line x1="0" y1="-18" x2="0" y2="-50" stroke="#3e3e3e" stroke-width="3.2" transform="rotate(112.5)"/>
      <line x1="0" y1="-18" x2="0" y2="-50" stroke="#383838" stroke-width="3.2" transform="rotate(120)"/>
      <line x1="0" y1="-18" x2="0" y2="-50" stroke="#333" stroke-width="3.2" transform="rotate(127.5)"/>
      <line x1="0" y1="-18" x2="0" y2="-50" stroke="#2e2e2e" stroke-width="3.2" transform="rotate(135)"/>
      <line x1="0" y1="-18" x2="0" y2="-50" stroke="#2a2a2a" stroke-width="3.2" transform="rotate(142.5)"/>
      <line x1="0" y1="-18" x2="0" y2="-50" stroke="#272727" stroke-width="3.2" transform="rotate(150)"/>
      <line x1="0" y1="-18" x2="0" y2="-50" stroke="#252525" stroke-width="3.2" transform="rotate(157.5)"/>
      <line x1="0" y1="-18" x2="0" y2="-50" stroke="#232323" stroke-width="3.2" transform="rotate(165)"/>
      <line x1="0" y1="-18" x2="0" y2="-50" stroke="#222" stroke-width="3.2" transform="rotate(172.5)"/>
      <line x1="0" y1="-18" x2="0" y2="-50" stroke="#212121" stroke-width="3.2" transform="rotate(180)"/>
      <line x1="0" y1="-18" x2="0" y2="-50" stroke="#212121" stroke-width="3.2" transform="rotate(187.5)"/>
      <line x1="0" y1="-18" x2="0" y2="-50" stroke="#222" stroke-width="3.2" transform="rotate(195)"/>
      <line x1="0" y1="-18" x2="0" y2="-50" stroke="#232323" stroke-width="3.2" transform="rotate(202.5)"/>
      <line x1="0" y1="-18" x2="0" y2="-50" stroke="#252525" stroke-width="3.2" transform="rotate(210)"/>
      <line x1="0" y1="-18" x2="0" y2="-50" stroke="#272727" stroke-width="3.2" transform="rotate(217.5)"/>
      <line x1="0" y1="-18" x2="0" y2="-50" stroke="#2a2a2a" stroke-width="3.2" transform="rotate(225)"/>
      <line x1="0" y1="-18" x2="0" y2="-50" stroke="#2e2e2e" stroke-width="3.2" transform="rotate(232.5)"/>
      <line x1="0" y1="-18" x2="0" y2="-50" stroke="#333" stroke-width="3.2" transform="rotate(240)"/>
      <line x1="0" y1="-18" x2="0" y2="-50" stroke="#383838" stroke-width="3.2" transform="rotate(247.5)"/>
      <line x1="0" y1="-18" x2="0" y2="-50" stroke="#3e3e3e" stroke-width="3.2" transform="rotate(255)"/>
      <line x1="0" y1="-18" x2="0" y2="-50" stroke="#444" stroke-width="3.2" transform="rotate(262.5)"/>
      <line x1="0" y1="-18" x2="0" y2="-50" stroke="#4a4a4a" stroke-width="3.2" transform="rotate(270)"/>
      <line x1="0" y1="-18" x2="0" y2="-50" stroke="#555" stroke-width="3.2" transform="rotate(277.5)"/>
      <line x1="0" y1="-18" x2="0" y2="-50" stroke="#606060" stroke-width="3.2" transform="rotate(285)"/>
      <line x1="0" y1="-18" x2="0" y2="-50" stroke="#707070" stroke-width="3.2" transform="rotate(292.5)"/>
      <line x1="0" y1="-18" x2="0" y2="-50" stroke="#808080" stroke-width="3.2" transform="rotate(300)"/>
      <line x1="0" y1="-18" x2="0" y2="-50" stroke="#909090" stroke-width="3.2" transform="rotate(307.5)"/>
      <line x1="0" y1="-18" x2="0" y2="-50" stroke="#a0a0a0" stroke-width="3.2" transform="rotate(315)"/>
      <line x1="0" y1="-18" x2="0" y2="-50" stroke="#b0b0b0" stroke-width="3.2" transform="rotate(322.5)"/>
      <line x1="0" y1="-18" x2="0" y2="-50" stroke="#c0c0c0" stroke-width="3.2" transform="rotate(330)"/>
      <line x1="0" y1="-18" x2="0" y2="-50" stroke="#d0d0d0" stroke-width="3.2" transform="rotate(337.5)"/>
      <line x1="0" y1="-18" x2="0" y2="-50" stroke="#e0e0e0" stroke-width="3.2" transform="rotate(345)"/>
      <line x1="0" y1="-18" x2="0" y2="-50" stroke="#eee" stroke-width="3.2" transform="rotate(352.5)"/>
    </g>
    <!-- Center dark circle -->
    <circle cx="0" cy="0" r="18" fill="#1a1a1a"/>
  </g>
</svg>
